<svg width="13" height="13" viewBox="0 0 13 13" fill="none" xmlns="http://www.w3.org/2000/svg">
<path d="M12.771 4.82905C13.0636 5.94303 13.0636 7.05688 12.7709 8.17085C12.4781 9.28493 11.9158 10.2582 11.0833 11.0912C10.2508 11.9242 9.27806 12.4873 8.16488 12.7801C7.0517 13.0731 5.93863 13.0731 4.82537 12.7802C3.71204 12.4873 2.73925 11.9243 1.90691 11.0914C1.07452 10.2584 0.51208 9.28499 0.219217 8.17098C-0.073416 7.05702 -0.0734163 5.94317 0.219238 4.82912C0.512017 3.7151 1.07456 2.74167 1.90695 1.9087C2.73934 1.07573 3.71217 0.512717 4.82537 0.219775C5.93846 -0.0731887 7.05166 -0.0730201 8.16482 0.219837C9.27799 0.512842 10.2507 1.07586 11.0831 1.90879C11.9155 2.74177 12.4782 3.71527 12.771 4.82905ZM10.4141 10.4217C11.4018 9.43337 11.9375 8.24368 12.0211 6.8528L11.842 6.82298C11.7702 6.81094 11.615 6.80506 11.376 6.80495C11.1371 6.80498 10.8931 6.82185 10.6442 6.85573C10.3951 6.8897 10.0806 6.95934 9.70019 7.06504C9.31982 7.17066 8.94041 7.30907 8.56203 7.4805C8.94847 8.78381 9.21934 10.0352 9.3746 11.2348C9.76496 10.9956 10.1114 10.7246 10.4141 10.4217ZM5.85606 12.0061C6.72019 12.1056 7.55655 12.0101 8.36507 11.7191C8.20177 10.5673 7.93483 9.32777 7.56451 8.00059C6.03513 8.89334 4.66908 9.94148 3.46635 11.1452C4.19522 11.6194 4.99182 11.9064 5.85606 12.0061ZM1.42591 8.74476C1.69868 9.3685 2.08211 9.92754 2.57602 10.4218C2.6318 10.4776 2.67568 10.5174 2.70747 10.5414C4.14929 9.09853 5.67466 7.94263 7.28376 7.07388C7.16432 6.69923 7.04881 6.37241 6.93724 6.09337C6.91316 6.10156 6.87855 6.11835 6.8327 6.14426C6.78677 6.17028 6.75405 6.18921 6.73394 6.20125L6.4353 6.34469C6.2281 6.44038 5.9343 6.54305 5.55412 6.65262C5.17366 6.76205 4.75259 6.86078 4.29053 6.94843C3.82845 7.03606 3.29675 7.07195 2.69529 7.05587C2.09391 7.03996 1.51651 6.95436 0.962925 6.79895C0.998749 7.47248 1.15322 8.12118 1.42591 8.74476ZM2.57602 2.5782C1.64403 3.51084 1.11038 4.64276 0.974895 5.97389L0.99877 5.81842C1.44491 5.98591 1.94474 6.07564 2.49834 6.08747C3.05191 6.09934 3.54088 6.06659 3.96509 5.98893C4.38913 5.9111 4.8252 5.8015 5.27349 5.66016C5.72143 5.51859 6.02013 5.41517 6.16945 5.34917C6.31881 5.28338 6.43739 5.23063 6.52505 5.19082L6.54294 5.18494L6.55497 5.1729C5.9216 3.75817 5.20875 2.48659 4.41612 1.35875C3.71506 1.64562 3.10186 2.05212 2.57602 2.5782ZM7.67511 1.08051C6.92429 0.919066 6.17836 0.910104 5.43781 1.05356C6.1904 2.13374 6.8697 3.32339 7.47491 4.6227C8.39108 3.95326 9.14767 3.08034 9.74518 2.00433C9.11587 1.55001 8.42571 1.24201 7.67511 1.08051ZM10.4081 2.69181C10.3762 2.73958 10.3354 2.7985 10.2856 2.86817C10.2358 2.93783 10.175 3.02266 10.1033 3.12231C10.0317 3.22183 9.94891 3.33055 9.85541 3.44806C9.7618 3.56565 9.66023 3.68916 9.5506 3.81879C9.44117 3.94832 9.32158 4.08378 9.19226 4.22525C9.06264 4.36686 8.92832 4.5073 8.7889 4.64682C8.64962 4.78619 8.49909 4.92875 8.33793 5.07419C8.17679 5.21974 8.01437 5.35405 7.85113 5.47761C7.85904 5.5096 7.87702 5.55741 7.90493 5.62119C7.9328 5.68489 7.95465 5.73288 7.97082 5.76452C8.06233 6.00773 8.16387 6.28478 8.27524 6.59569C8.66165 6.43234 9.05199 6.2987 9.44646 6.19497C9.8407 6.09147 10.1691 6.02178 10.432 5.98581C10.695 5.95002 10.9569 5.92912 11.2177 5.92314C11.4786 5.91708 11.6536 5.91916 11.7434 5.929C11.8332 5.93901 11.9197 5.94996 12.0033 5.96189L12.0153 5.96191C11.8878 4.67063 11.3683 3.55659 10.456 2.62005L10.4081 2.69181Z" fill="white"/>
</svg>
